<svg width="16" height="17" viewBox="0 0 16 17" fill="none" xmlns="http://www.w3.org/2000/svg">
<path d="M7.99954 1.83203V1.33203H7.99949L7.99954 1.83203ZM9.99954 4.83203L9.49954 4.83194V4.83203H9.99954ZM11.6665 6.49902L11.6666 5.99902L11.6665 6.49902ZM12.7437 9.73926L12.3149 9.99651L12.3151 9.99681L12.7437 9.73926ZM13.1128 10.3535L13.5416 10.0963L13.5414 10.096L13.1128 10.3535ZM12.2759 11.832V12.332H12.276L12.2759 11.832ZM2.88723 10.3535L2.45866 10.096L2.45848 10.0963L2.88723 10.3535ZM3.25637 9.73926L3.68494 9.99681L3.68512 9.9965L3.25637 9.73926ZM3.99954 5.83203L3.49954 5.83199V5.83203H3.99954ZM11.9403 6.52961L11.6377 6.92766L11.9403 6.52961ZM11.969 6.55825L11.5709 6.86082L11.969 6.55825ZM10.7895 2.96702L10.4406 3.32517L10.7895 2.96702ZM10.7048 3.47251L10.4162 3.06424L10.7048 3.47251ZM10.9703 3.21861L10.4718 3.17942L10.9703 3.21861ZM7.99954 1.83203V2.33203C8.94911 2.33203 9.80946 2.7103 10.4406 3.32517L10.7895 2.96702L11.1384 2.60887C10.3285 1.81982 9.22066 1.33203 7.99954 1.33203V1.83203ZM10.7048 3.47251L10.4162 3.06424C9.86334 3.45511 9.49968 4.1004 9.49954 4.83194L9.99954 4.83203L10.4995 4.83213C10.4996 4.43979 10.6935 4.09286 10.9935 3.88078L10.7048 3.47251ZM9.99954 4.83203H9.49954C9.49954 6.02864 10.47 6.99896 11.6665 6.99902L11.6665 6.49902L11.6666 5.99902C11.0222 5.99899 10.4995 5.47631 10.4995 4.83203H9.99954ZM11.9995 6.80016H11.4995V7.05273H11.9995H12.4995V6.80016H11.9995ZM11.9995 7.05273H11.4995C11.4995 8.08957 11.7815 9.10744 12.3149 9.99651L12.7437 9.73926L13.1724 9.48201C12.7322 8.74835 12.4995 7.90832 12.4995 7.05273H11.9995ZM12.7437 9.73926L12.3151 9.99681L12.6843 10.6111L13.1128 10.3535L13.5414 10.096L13.1722 9.48171L12.7437 9.73926ZM13.1128 10.3535L12.6841 10.6108C12.8745 10.9282 12.6459 11.332 12.2758 11.332L12.2759 11.832L12.276 12.332C13.4234 12.3319 14.1319 11.0801 13.5416 10.0963L13.1128 10.3535ZM12.2759 11.832V11.332H3.72414V11.832V12.332H12.2759V11.832ZM3.72414 11.832V11.332C3.35418 11.332 3.12544 10.9283 3.31598 10.6108L2.88723 10.3535L2.45848 10.0963C1.86823 11.08 2.57651 12.332 3.72414 12.332V11.832ZM2.88723 10.3535L3.3158 10.6111L3.68494 9.99681L3.25637 9.73926L2.82781 9.48171L2.45866 10.096L2.88723 10.3535ZM3.25637 9.73926L3.68512 9.9965C4.21872 9.10715 4.49954 8.08921 4.49954 7.05273H3.99954H3.49954C3.49954 7.90865 3.26763 8.74865 2.82762 9.48201L3.25637 9.73926ZM3.99954 7.05273H4.49954V5.83203H3.99954H3.49954V7.05273H3.99954ZM3.99954 5.83203L4.49954 5.83207C4.49969 3.89933 6.06683 2.33221 7.99958 2.33203L7.99954 1.83203L7.99949 1.33203C5.51454 1.33227 3.49973 3.34701 3.49954 5.83199L3.99954 5.83203ZM11.6665 6.49902V6.99902C11.7066 6.99902 11.7363 6.99904 11.7613 6.99944C11.7867 6.99984 11.7987 7.00056 11.8034 7.00097C11.8091 7.00146 11.7937 7.0007 11.7679 6.99347C11.7401 6.98572 11.6907 6.9679 11.6377 6.92766L11.9403 6.52961L12.2429 6.13155C12.1034 6.02555 11.951 6.01003 11.89 6.00473C11.8192 5.99857 11.7348 5.99902 11.6665 5.99902V6.49902ZM11.9995 6.80016H12.4995C12.4995 6.74348 12.5001 6.66372 12.4933 6.59465C12.4864 6.52464 12.4663 6.38625 12.367 6.25568L11.969 6.55825L11.5709 6.86082C11.5365 6.81551 11.5181 6.77167 11.5085 6.74036C11.5039 6.72538 11.5014 6.71344 11.5 6.7059C11.4987 6.6984 11.4982 6.69376 11.4981 6.6931C11.4981 6.69301 11.4988 6.70002 11.4991 6.72054C11.4995 6.74081 11.4995 6.76518 11.4995 6.80016H11.9995ZM11.9403 6.52961L11.6377 6.92766C11.6314 6.92288 11.618 6.91218 11.6022 6.89639C11.5864 6.8806 11.5757 6.86712 11.5709 6.86082L11.969 6.55825L12.367 6.25568C12.3304 6.2075 12.2911 6.16817 12.2429 6.13155L11.9403 6.52961ZM10.7895 2.96702L10.4406 3.32517C10.473 3.35674 10.4952 3.37838 10.5131 3.39667C10.5312 3.4153 10.5356 3.42104 10.534 3.41896C10.5325 3.41714 10.5142 3.3939 10.4978 3.35283C10.4791 3.30619 10.4666 3.24619 10.4718 3.17942L10.9703 3.21861L11.4688 3.25779C11.4857 3.04179 11.3861 2.88567 11.3231 2.80481C11.2666 2.73214 11.1898 2.65888 11.1384 2.60887L10.7895 2.96702ZM10.7048 3.47251L10.9935 3.88078C11.0695 3.82701 11.1633 3.76169 11.234 3.69846C11.2963 3.64269 11.45 3.49665 11.4688 3.25779L10.9703 3.21861L10.4718 3.17942C10.4785 3.0947 10.5096 3.03138 10.534 2.99448C10.5554 2.96228 10.573 2.94796 10.567 2.95335C10.5623 2.9576 10.5496 2.96815 10.5216 2.98885C10.494 3.00918 10.4608 3.03271 10.4162 3.06424L10.7048 3.47251Z" fill="#9693A8"/>
<ellipse cx="11.6665" cy="4.83398" rx="1" ry="1" fill="#FF4040"/>
<path d="M9.6665 12.5007C9.6665 12.8543 9.49091 13.1934 9.17835 13.4435C8.86579 13.6935 8.44186 13.834 7.99984 13.834C7.55781 13.834 7.13389 13.6935 6.82133 13.4435C6.50877 13.1934 6.33317 12.8543 6.33317 12.5007" stroke="#9693A8" stroke-linecap="round"/>
</svg>
