<svg width="19" height="18" viewBox="0 0 19 18" fill="none" xmlns="http://www.w3.org/2000/svg">
<path d="M2.75 6.75V9.75C2.75 12.5784 2.75 13.9926 3.62868 14.8713C4.50736 15.75 5.92157 15.75 8.75 15.75H10.25C13.0784 15.75 14.4926 15.75 15.3713 14.8713C16.25 13.9926 16.25 12.5784 16.25 9.75V8.25C16.25 5.42157 16.25 4.00736 15.3713 3.12868C14.4926 2.25 13.0784 2.25 10.25 2.25H7.25" stroke="#9693A8" stroke-linecap="round"/>
<path d="M11.75 11.25V11.75H12.25V11.25H11.75ZM6.10355 4.89645C5.90829 4.70118 5.59171 4.70118 5.39645 4.89645C5.20118 5.09171 5.20118 5.40829 5.39645 5.60355L6.10355 4.89645ZM11.75 6H11.25V11.25H11.75H12.25V6H11.75ZM11.75 11.25V10.75H6.5V11.25V11.75H11.75V11.25ZM11.75 11.25L12.1036 10.8964L6.10355 4.89645L5.75 5.25L5.39645 5.60355L11.3964 11.6036L11.75 11.25Z" fill="#9693A8"/>
</svg>
