<svg width="19" height="18" viewBox="0 0 19 18" fill="none" xmlns="http://www.w3.org/2000/svg">
<path d="M14 15L13.6464 15.3536L14 15.7071L14.3536 15.3536L14 15ZM10.25 3.25C9.97386 3.25 9.75 3.47386 9.75 3.75C9.75 4.02614 9.97386 4.25 10.25 4.25L10.25 3.25ZM11 12L10.6464 12.3536L13.6464 15.3536L14 15L14.3536 14.6464L11.3536 11.6464L11 12ZM14 15L14.3536 15.3536L17.3536 12.3536L17 12L16.6464 11.6464L13.6464 14.6464L14 15ZM14 15L14.5 15L14.5 7.5L14 7.5L13.5 7.5L13.5 15L14 15ZM14 7.5L14.5 7.5C14.5 5.15279 12.5972 3.25 10.25 3.25L10.25 3.75L10.25 4.25C12.0449 4.25 13.5 5.70507 13.5 7.5L14 7.5Z" fill="#9693A8"/>
<path d="M5 3L5.35355 2.64645L5 2.29289L4.64645 2.64645L5 3ZM8.75 14.75C9.02614 14.75 9.25 14.5261 9.25 14.25C9.25 13.9739 9.02614 13.75 8.75 13.75L8.75 14.75ZM8 6L8.35355 5.64645L5.35355 2.64645L5 3L4.64645 3.35355L7.64645 6.35355L8 6ZM5 3L4.64645 2.64645L1.64645 5.64645L2 6L2.35355 6.35355L5.35355 3.35355L5 3ZM5 3L4.5 3L4.5 10.5L5 10.5L5.5 10.5L5.5 3L5 3ZM5 10.5L4.5 10.5C4.5 12.8472 6.40279 14.75 8.75 14.75L8.75 14.25L8.75 13.75C6.95507 13.75 5.5 12.2949 5.5 10.5L5 10.5Z" fill="#9693A8"/>
</svg>
