<svg width="32" height="32" viewBox="0 0 32 32" fill="none" xmlns="http://www.w3.org/2000/svg">
<rect width="32" height="32" rx="16" fill="#1A1A41"/>
<path d="M22.6665 13.3327L23.0201 12.9791L23.3736 13.3327L23.0201 13.6862L22.6665 13.3327ZM15.9998 13.8327C15.7237 13.8327 15.4998 13.6088 15.4998 13.3327C15.4998 13.0565 15.7237 12.8327 15.9998 12.8327L15.9998 13.8327ZM19.9998 10.666L20.3534 10.3125L23.0201 12.9791L22.6665 13.3327L22.313 13.6862L19.6463 11.0196L19.9998 10.666ZM22.6665 13.3327L23.0201 13.6862L20.3534 16.3529L19.9998 15.9993L19.6463 15.6458L22.313 12.9791L22.6665 13.3327ZM22.6665 13.3327L22.6665 13.8327L15.9998 13.8327L15.9998 13.3327L15.9998 12.8327L22.6665 12.8327L22.6665 13.3327Z" fill="#DEDEFF"/>
<path d="M9.3335 18.6667L8.97994 18.3131L8.62639 18.6667L8.97994 19.0202L9.3335 18.6667ZM22.0002 19.1667C22.2763 19.1667 22.5002 18.9428 22.5002 18.6667C22.5002 18.3905 22.2763 18.1667 22.0002 18.1667L22.0002 19.1667ZM12.0002 16L11.6466 15.6464L8.97994 18.3131L9.3335 18.6667L9.68705 19.0202L12.3537 16.3536L12.0002 16ZM9.3335 18.6667L8.97994 19.0202L11.6466 21.6869L12.0002 21.3333L12.3537 20.9798L9.68705 18.3131L9.3335 18.6667ZM9.3335 18.6667L9.3335 19.1667L22.0002 19.1667L22.0002 18.6667L22.0002 18.1667L9.3335 18.1667L9.3335 18.6667Z" fill="#DEDEFF"/>
</svg>
